# xmcd
#
# Track frame offsets: 
#        150
#        28832
#        52769
#        79429
#        105983
#        148894
#        170581
#        192343
#
# Disc length: 2991 seconds
#
# Revision: 3
# Processed by: cddbd v1.5.1PL0 Copyright (c) Steve Scherf et al.
# Submitted via: ExactAudioCopy v0.95b1
#
DISCID=6a0bad08
DTITLE=Hugo Race and True Spirit - The Goldstreet Sessions
DYEAR=2003
DGENRE=Avantgarde
TTITLE0=LSD Is Dead
TTITLE1=Makes Me Mean
TTITLE2=A.M. Radio
TTITLE3=Hush Money
TTITLE4=Is Your Love Strong
TTITLE5=Premonition
TTITLE6=Midas Touch
TTITLE7=Ramacca
EXTD=GRCD 585 - www.helixed.net
EXTT0=
EXTT1=
EXTT2=
EXTT3=
EXTT4=
EXTT5=
EXTT6=
EXTT7=
PLAYORDER=
